HIERARCHY
ROOT MidHip
{
    OFFSET 0.0 0.0 0.0
    CHANNELS 6 Xposition Yposition Zposition Zrotation Xrotation Yrotation
    JOINT Spine
    {
        OFFSET 0.0 0.0 14.16082814420067
        CHANNELS 3 Zrotation Xrotation Yrotation
        JOINT MidShoulder
        {
            OFFSET 0.0 0.0 14.16082814420067
            CHANNELS 3 Zrotation Xrotation Yrotation
            JOINT Nose
            {
                OFFSET 0.0 0.0 10.96322681282452
                CHANNELS 3 Zrotation Xrotation Yrotation
                End Site
                {
                    OFFSET 0.0 0.0 4.385290725129807
                }
            }
            JOINT RightShoulder
            {
                OFFSET -9.47881756515158 0.0 0.0
                CHANNELS 3 Zrotation Xrotation Yrotation
                JOINT RightElbow
                {
                    OFFSET -13.952425820390104 0.0 0.0
                    CHANNELS 3 Zrotation Xrotation Yrotation
                    JOINT RightWrist
                    {
                        OFFSET -11.83868652799122 0.0 0.0
                        CHANNELS 3 Zrotation Xrotation Yrotation
                        End Site
                        {
                            OFFSET -3.348486209713766 3.348486209713766 0.0
                        }
                        End Site
                        {
                            OFFSET -4.735474611196488 0.0 0.0
                        }
                        End Site
                        {
                            OFFSET -3.348486209713766 -3.348486209713766 0.0
                        }
                    }
                }
            }
            JOINT LeftShoulder
            {
                OFFSET 9.47881756515158 0.0 0.0
                CHANNELS 3 Zrotation Xrotation Yrotation
                JOINT LeftElbow
                {
                    OFFSET 13.952425820390104 0.0 0.0
                    CHANNELS 3 Zrotation Xrotation Yrotation
                    JOINT LeftWrist
                    {
                        OFFSET 11.83868652799122 0.0 0.0
                        CHANNELS 3 Zrotation Xrotation Yrotation
                        End Site
                        {
                            OFFSET 3.348486209713766 3.348486209713766 0.0
                        }
                        End Site
                        {
                            OFFSET 4.735474611196488 0.0 0.0
                        }
                        End Site
                        {
                            OFFSET 3.348486209713766 -3.348486209713766 0.0
                        }
                    }
                }
            }
        }
    }
    JOINT RightHip
    {
        OFFSET -5.381189499037209 0.0 0.0
        CHANNELS 3 Zrotation Xrotation Yrotation
        JOINT RightKnee
        {
            OFFSET 0.0 0.0 -18.836682106019083
            CHANNELS 3 Zrotation Xrotation Yrotation
            JOINT RightAnkle
            {
                OFFSET 0.0 0.0 -20.108163479905215
                CHANNELS 3 Zrotation Xrotation Yrotation
                End Site
                {
                    OFFSET 0.0 5.687447501539466 -5.687447501539466
                }
                End Site
                {
                    OFFSET 0.0 -5.687447501539466 -5.687447501539466
                }
            }
        }
    }
    JOINT LeftHip
    {
        OFFSET 5.381189499037209 0.0 0.0
        CHANNELS 3 Zrotation Xrotation Yrotation
        JOINT LeftKnee
        {
            OFFSET 0.0 0.0 -18.836682106019083
            CHANNELS 3 Zrotation Xrotation Yrotation
            JOINT LeftAnkle
            {
                OFFSET 0.0 0.0 -20.108163479905215
                CHANNELS 3 Zrotation Xrotation Yrotation
                End Site
                {
                    OFFSET 0.0 5.687447501539466 -5.687447501539466
                }
                End Site
                {
                    OFFSET 0.0 -5.687447501539466 -5.687447501539466
                }
            }
        }
    }
}
MOTION
Frames: 6
Frame Time: 0.03333333333333333
-17.937661700594752 42.22985101614106 29.99929729918473 75.54823300727654 7.687082642920887 93.7145786691377 0.3731286010849893 -8.55037894772838 -6.639150129599207 -1.7041161442536623 -6.07662409935838e-15 -1.917581192091424e-14 0.0 0.0 0.0 37.56540376932266 -3.099278311374019 -52.1656770055734 132.08631231335826 -8.060046535316075e-16 1.3563408273400941e-14 32.696006947205696 -4.988993101214563 3.1950246278765175 -49.4079301349439 -17.66208553358099 59.13776708944642 -137.5117366061223 5.9288400854389564e-15 -2.304900771922763e-15 -23.879752544369698 -23.903899595073305 169.82986524929584 0.8077855447220288 -18.029244412886122 1.7826415890685545 -0.16599190314556833 11.366283235443392 -4.180529791231363 -3.1805546814635168e-15 0.0 0.0 0.8934077604714049 -19.797938395669888 4.808728668105418 0.6088458514471137 15.64713229217022 -6.077525004393198 0.0 0.0 0.0
-17.198270729281973 41.52997456914621 30.078361841724455 76.93163670437141 8.05848864261779 93.73203176715012 0.14273555822251036 -9.0137208906176 -6.290088897994625 -2.1055713091383734 -1.2953823337245494e-14 1.2486318895670488e-14 0.0 0.0 3.1805546814635168e-15 39.4666254306889 -3.7559188871393214 -57.305411882298685 134.59001763596999 -3.922339691366016e-15 5.254326378623389e-15 28.445223777930234 3.0417578192324606 -1.6465490897740118 -45.399491123598516 -20.034847504023766 56.49932726427454 -135.81113602057212 -9.395334069427052e-15 1.067924432530004e-14 -12.937708096073948 -1.8243419273064254 179.58098437684131 0.22768924184856107 -14.200234806315237 0.3592003993686063 -0.07964707632160081 7.9696272371659775 -2.381617031652822 -6.3611093629270335e-15 0.0 0.0 0.23266669905143061 -14.497710155667662 3.476767053484406 0.44898931751756715 9.989212020546466 -5.415513890503544 0.0 0.0 3.1805546814635168e-15
-16.843379029950057 41.494772045989656 30.29078195665965 77.4928964720176 6.845354899937472 94.10081905659044 -0.05172999996365594 -9.406544964584352 -6.346649640101328 -1.713203010129775 -6.360398465113354e-15 -9.509832859556635e-17 0.0 0.0 0.0 43.79356742516037 -4.595331149623953 -59.98250212690802 133.61351244055183 1.378096002974901e-14 -7.936204552741034e-15 26.499278735557883 2.2771553680492946 -1.1348646982136217 -45.89671392624698 -19.12387400632729 55.78056364776257 -135.23941791737712 1.1763943831882143e-14 -4.84401432995341e-15 -11.07625824374183 6.205090640149492 -178.787833596211 -0.0726820637479341 -13.103171183965133 -1.8604260052116293 -0.2004721132560041 7.41590806127659 -0.08302077880168854 0.0 0.0 -3.1805546814635176e-15 -0.06782973223084966 -12.255727523743523 1.2846702941120767 0.2215521351137063 7.861171748280121 -3.900973512600095 3.1805546814635168e-15 6.3611093629270335e-15 -3.1805546814635168e-15
-16.653287507710772 41.53452034002461 30.499954644952975 77.88052091252108 6.559238861275786 94.38297942523582 -0.23883022326469935 -9.272638125456208 -6.217047302880093 -1.6767056414167207 6.220819622379872e-15 9.633715186206563e-15 0.0 0.0 0.0 44.374429711275006 -6.49071979921067 -59.85723205203372 133.74922456831678 0.0 0.0 25.040886765697845 -0.9885605752794863 0.4617995788425958 -45.112225275650125 -18.711113741051776 55.81019991544787 -134.55732789662608 -7.370926968996779e-15 -1.7602353438156433e-14 -14.60244721131426 20.091632649868565 -174.88584826875157 -0.32431633829666295 -12.500526448332513 -3.5676582792733016 -0.26143597154170506 7.196352914379385 1.841607098125763 0.0 0.0 0.0 -0.28858893448525547 -11.160063806806324 -0.922942568065755 0.06926073007750858 6.954892672960235 -1.478259829961363 1.7655625192200634e-31 -6.361109362927033e-15 3.1805546814635164e-15
-16.583616274629808 41.55976481961358 30.493432272317506 77.9788288018539 6.546171671567837 94.35738159554468 -0.35191774225843875 -9.461452762469266 -6.182404567019463 -1.6647440920090313 1.253605900294692e-14 1.290569344481641e-14 6.3611093629270335e-15 0.0 0.0 43.732458919211425 -7.382696244170987 -59.359601771260536 133.24649542366353 2.9194810530926918e-15 1.2619661098509262e-15 24.57745614981387 0.19309475639263485 -0.08831355977456568 -45.396338357915894 -18.741185155882334 56.16071440566213 -134.53936067338046 -8.047288264350413e-15 1.3716389963650623e-14 -13.123418517851434 21.524341502553643 -175.11095828926935 -0.45711979990316015 -12.214287965566067 -4.0979642664308225 -0.23596544243061 6.938230504595446 2.886812738595611 -3.1805546814635176e-15 -6.3611093629270335e-15 -9.54166404439055e-15 -0.40068322291552577 -10.743791455409381 -0.8567411725875446 0.14380149533394226 6.351491468478694 -1.7931828670131258 0.0 0.0 0.0
-16.620708738988743 41.69763886440771 30.58145788052763 77.84806949764695 5.9838690817495035 94.61995559540223 -0.5785159378927563 -9.446519693621633 -6.402468458253172 -0.9388625528484353 6.413012620346453e-15 -6.3087791041938584e-15 1.7655625192200634e-31 -6.361109362927035e-15 3.1805546814635176e-15 44.08100956228275 -7.756569327310038 -59.742021292041215 133.46640555875564 4.3828462303988714e-15 1.884541616595997e-15 26.690784594099096 6.474725940598569 -3.2447462435332635 -46.071577909005946 -18.685842976750607 56.52917151215256 -134.36940020084785 5.863413870209296e-15 -2.466594841832605e-15 -12.172436706020093 29.32272596393941 -173.96984243317777 -0.7491027352769347 -12.158089073290032 -5.039503568140029 -0.16877525216792688 6.473798786205525 4.126895604869607 0.0 0.0 0.0 -0.6745233119286078 -10.978675125886516 -1.5525479136305158 0.22792323339841705 6.5476689890608535 -1.2943535471824863 3.1805546814635168e-15 0.0 0.0
